<?xml version="1.0" encoding="UTF-8"?>
<svg width="39px" height="39px" viewBox="0 0 39 39" version="1.1" xmlns="http://www.w3.org/2000/svg" xmlns:xlink="http://www.w3.org/1999/xlink">
    <title>icons8-film_reel</title>
    <g id="Video" stroke="none" stroke-width="1" fill="none" fill-rule="evenodd">
        <g transform="translate(-32.000000, -310.000000)" fill="#868A8C" fill-rule="nonzero" id="icons8-film_reel">
            <g transform="translate(32.000000, 310.000000)">
                <path d="M14.7771885,0 C6.62907629,0 0,6.64196155 0,14.8059116 C0,22.9698624 6.62907629,29.6118232 14.7771885,29.6118232 C22.9253014,29.6118232 29.5543769,22.9698624 29.5543769,14.8059116 C29.5543769,13.2930544 29.34475,11.8228126 28.9224577,10.4469343 C32.3433286,15.3477401 32.6440972,20.1633138 32.543841,24.5222911 C32.4709273,27.6910725 32.1245873,30.6132919 32.6167548,33.1428383 C33.108923,35.6723846 34.624921,37.8031696 37.8665454,38.9142215 C38.1399724,39.0542449 38.4680843,39.020761 38.7080915,38.8289901 C38.9480995,38.6372193 39.0513944,38.3236901 38.975442,38.0253798 C38.8994903,37.7301141 38.6564445,37.5048593 38.3526371,37.4531119 C35.5059627,36.4790387 34.5671982,35.0087969 34.1479437,32.8506163 C33.72869,30.6924357 34.0264208,27.8250076 34.0993345,24.5709947 C34.2390863,18.40085 33.3367779,10.7604643 24.4747184,3.65277424 C24.0190078,3.25401286 23.5450683,2.87351573 23.0407478,2.53259014 C23.0255576,2.52041422 23.0073288,2.52041422 22.9921386,2.50823831 C22.9192249,2.45953465 22.8463111,2.410831 22.7733973,2.36212734 C20.4674995,0.87057825 17.7210813,0 14.7771885,0 Z M14.7771885,2.72740476 C16.6152226,2.72740476 18.7145314,3.06528658 18.7145314,5.74703147 C18.7145314,7.8960807 15.8830471,9.83813861 14.7771885,9.83813861 C13.6713298,9.83813861 10.8398455,7.8960807 10.8398455,5.74703147 C10.8398455,3.06528658 12.9391543,2.72740476 14.7771885,2.72740476 Z M6.51362912,8.27962161 C6.86300774,8.27962161 7.22757654,8.34354496 7.63164009,8.47443623 C8.44584373,8.74230634 9.14460097,9.44850936 9.67322534,10.495638 C10.1441269,11.4301396 10.5147714,12.8029741 10.28084,13.5152647 C9.99829937,14.4010626 7.89595266,16.1452621 6.02753739,16.1452621 C5.7298066,16.1452621 5.46549403,16.1087344 5.20118146,16.023503 C4.15000849,15.6825774 3.49986042,15.058562 3.25681456,14.1971159 C3.05022558,13.4604735 3.12010146,12.5777193 3.52416501,11.3236001 C3.97987639,9.9111941 4.74850874,8.27962161 6.51362912,8.27962161 Z M23.0407478,8.27962161 C24.8058682,8.27962161 25.5501967,9.9111941 26.0059073,11.3236001 C26.4130095,12.5777193 26.5041513,13.4604735 26.2975623,14.1971159 C26.0545165,15.058562 25.4043692,15.6825774 24.3531954,16.023503 C24.0888829,16.1087344 23.8002665,16.1452621 23.5025349,16.1452621 C21.6341197,16.1452621 19.5348116,14.4041064 19.2492323,13.5152647 C19.0153009,12.81515 19.3859454,11.4270958 19.856847,10.495638 C20.38851,9.44546558 21.1085332,8.74230634 21.9227368,8.47443623 C22.329839,8.34354496 22.6913692,8.27962161 23.0407478,8.27962161 Z M14.7771885,13.2473946 C15.6369634,13.2473946 16.332682,13.9444655 16.332682,14.8059116 C16.332682,15.6673577 15.6369634,16.3644286 14.7771885,16.3644286 C13.9174135,16.3644286 13.2216949,15.6673577 13.2216949,14.8059116 C13.2216949,13.9444655 13.9174135,13.2473946 14.7771885,13.2473946 Z M19.6381057,18.3369267 C20.4249669,18.3369267 22.3541436,18.4678179 23.2837936,19.7736845 C24.8332114,21.9653491 23.2989838,23.4812508 21.8012139,24.5466429 C20.6923173,25.3350335 19.8629235,25.6911788 19.0791002,25.6911788 C18.2193253,25.6911788 17.4628452,25.2498021 16.8430783,24.3761801 C16.2840728,23.590834 16.1534355,22.4219463 16.4785095,21.0886833 C16.6972508,20.1967978 17.1620758,19.1314049 17.6937388,18.7509078 C18.2102117,18.3795428 19.2279656,18.3369267 19.6381057,18.3369267 Z M10.1107079,18.4586858 C10.639333,18.4586858 11.3380895,18.5195654 11.7634198,18.7996114 C12.395339,19.2105487 12.9786491,20.5225036 13.1973903,21.551368 C13.4373983,22.6898164 13.3189133,23.6638895 12.8571261,24.3761801 C12.2434357,25.3106817 11.4778413,25.7885861 10.572495,25.7885861 C9.81601497,25.7885861 8.99269692,25.4781007 7.89899054,24.7658093 C6.36172584,23.7582522 4.7880035,22.3093185 6.24627867,20.0659065 C7.21238636,18.5743574 9.4484083,18.4586858 10.1107079,18.4586858 Z" id="Shape"></path>
            </g>
        </g>
    </g>
</svg>