<?xml version="1.0" encoding="UTF-8"?>
<svg width="26px" height="23px" viewBox="0 0 26 23" version="1.1" xmlns="http://www.w3.org/2000/svg" xmlns:xlink="http://www.w3.org/1999/xlink">
    <title>icons8-documentary</title>
    <g id="Video" stroke="none" stroke-width="1" fill="none" fill-rule="evenodd">
        <g id="Video-Copy" transform="translate(-85.000000, -366.000000)" fill="#AFB1BC" fill-rule="nonzero">
            <g id="icons8-documentary" transform="translate(85.000000, 366.000000)">
                <path d="M5,0 C2.398438,0 0.1875,2.113281 0.1875,4.8125 C0.1875,6.542969 1.105469,8.03125 2.4375,8.875 C1.058594,9.097656 0,10.277344 0,11.71875 L0,19.90625 C0,21.507813 1.304688,22.8125 2.90625,22.8125 L18.09375,22.8125 C19.695313,22.8125 21,21.507813 21,19.90625 L21,18.8125 L22,18.8125 C23,18.8125 24,20.8125 25,20.8125 L26,20.8125 L26,10.8125 L25,10.8125 C24,10.8125 23,12.8125 22,12.8125 L21,12.8125 L21,11.71875 C21,10.277344 19.941406,9.097656 18.5625,8.875 C19.894531,8.03125 20.8125,6.542969 20.8125,4.8125 C20.8125,2.113281 18.601563,0 16,0 C13.398438,0 11.1875,2.113281 11.1875,4.8125 C11.1875,6.5 12.0625,7.960938 13.34375,8.8125 L7.65625,8.8125 C8.9375,7.960938 9.8125,6.5 9.8125,4.8125 C9.8125,2.113281 7.601563,0 5,0 Z" id="Path"></path>
            </g>
        </g>
    </g>
</svg>